<?xml version="1.0" standalone="no"?>
<!DOCTYPE svg PUBLIC "-//W3C//DTD SVG 20010904//EN"
 "http://www.w3.org/TR/2001/REC-SVG-20010904/DTD/svg10.dtd">
<svg version="1.0" xmlns="http://www.w3.org/2000/svg"
 width="225.000000pt" height="225.000000pt" viewBox="0 0 225.000000 225.000000"
 preserveAspectRatio="xMidYMid meet">
<metadata>
Created by potrace 1.14, written by Peter Selinger 2001-2017
</metadata>
<g transform="translate(0.000000,225.000000) scale(0.100000,-0.100000)"
fill="#000000" stroke="none">
<path d="M455 1968 c-42 -24 -44 -37 -44 -213 0 -118 3 -175 12 -186 21 -28
54 -39 117 -39 102 0 129 25 130 118 l0 62 160 0 160 0 0 -585 0 -585 -61 0
c-54 0 -64 -3 -90 -29 -27 -27 -29 -35 -29 -106 0 -71 2 -79 29 -106 l29 -29
257 0 257 0 29 29 c27 27 29 35 29 106 0 71 -2 79 -29 106 -26 26 -36 29 -90
29 l-61 0 0 585 0 585 160 0 160 0 0 -62 c1 -93 28 -118 130 -118 63 0 96 11
117 39 17 22 17 350 0 372 -7 9 -22 21 -34 27 -31 17 -1309 16 -1338 0z m1305
-213 l0 -135 -50 0 -50 0 0 78 c0 47 -5 83 -12 90 -9 9 -74 12 -229 12 -184 0
-220 -2 -233 -16 -14 -14 -16 -87 -16 -659 0 -572 2 -645 16 -659 11 -12 36
-16 90 -16 l74 0 0 -45 0 -45 -225 0 -225 0 0 45 0 45 74 0 c54 0 79 4 90 16
14 14 16 87 16 659 0 572 -2 645 -16 659 -13 14 -49 16 -233 16 -155 0 -220
-3 -229 -12 -7 -7 -12 -43 -12 -90 l0 -78 -50 0 -50 0 0 135 0 135 635 0 635
0 0 -135z"/>
</g>
</svg>
